<svg width="1529" height="776" viewBox="0 0 1529 776" fill="none" xmlns="http://www.w3.org/2000/svg">
<mask id="mask0_625_9228" style="mask-type:luminance" maskUnits="userSpaceOnUse" x="0" y="0" width="1529" height="776">
<path d="M1528.91 0.876953H0.00341797V775.045H1528.91V0.876953Z" fill="white"/>
</mask>
<g mask="url(#mask0_625_9228)">
<g opacity="0.2">
<path d="M961.514 1067.6H1094.47L765.495 379.497L961.514 1067.6Z" fill="#00B3E3"/>
<path d="M740.427 1067.6H836.143L765.495 379.497L740.427 1067.6Z" fill="#52C9E8"/>
<path d="M836.143 1067.6H961.514L765.495 379.497L836.143 1067.6Z" fill="#96D9E8"/>
<path d="M1529.3 830.414V610.529L765.495 379.497L1529.3 830.414Z" fill="#52C9E8"/>
<path d="M1529.3 1031.12V916.726L765.495 379.497L1529.3 1031.12Z" fill="#00B3E3"/>
<path d="M245.329 1067.6H562.657C637.128 815.533 765.5 379.497 765.5 379.497L245.329 1067.6Z" fill="#96D9E8"/>
<path d="M1339.26 1067.6H1529.3V1031.12L765.495 379.497L1339.26 1067.6Z" fill="#96D9E8"/>
<path d="M1094.47 1067.6H1339.26L765.495 379.497L1094.47 1067.6Z" fill="#52C9E8"/>
<path d="M562.66 1067.6H740.436L765.503 379.497C765.503 379.497 637.131 815.533 562.66 1067.6Z" fill="#00B3E3"/>
<path d="M1.69336 -199.703V-96.4876L765.495 379.497L1.69336 -199.703Z" fill="#00B3E3"/>
<path d="M1.69336 -96.4875V69.0698L765.495 379.497L1.69336 -96.4875Z" fill="#52C9E8"/>
<path d="M6.94099 -308.609H1.69336V-199.703L765.495 379.497L6.94099 -308.609Z" fill="#96D9E8"/>
<path d="M1.69336 69.0692V268.26L765.495 379.496L1.69336 69.0692Z" fill="#96D9E8"/>
<path d="M100.76 1067.6H245.33L765.493 379.497L100.76 1067.6Z" fill="#52C9E8"/>
<path d="M1.69336 684.748V907.221L765.495 379.497L1.69336 684.748Z" fill="#96D9E8"/>
<path d="M1.69336 268.26V559.003L765.495 379.497L1.69336 268.26Z" fill="#00B3E3"/>
<path d="M1.69336 907.221V1067.6H100.762L765.495 379.497L1.69336 907.221Z" fill="#00B3E3"/>
<path d="M1.69336 559.003V684.748L765.495 379.497L1.69336 559.003Z" fill="#52C9E8"/>
<path d="M1529.3 916.726V830.414L765.495 379.497L1529.3 916.726Z" fill="#96D9E8"/>
<path d="M825.807 -308.609H775.576L765.495 379.497L825.807 -308.609Z" fill="#96D9E8"/>
<path d="M775.577 -308.609H654.132L765.495 379.497L775.577 -308.609Z" fill="#00B3E3"/>
<path d="M962.135 -308.609H825.807L765.495 379.497L962.135 -308.609Z" fill="#52C9E8"/>
<path d="M1040.01 -308.609H962.135L765.495 379.497L1040.01 -308.609Z" fill="#00B3E3"/>
<path d="M1529.3 610.528V489.844L765.495 379.497L1529.3 610.528Z" fill="#96D9E8"/>
<path d="M463.972 -308.609H346.7L765.493 379.497L463.972 -308.609Z" fill="#00B3E3"/>
<path d="M765.494 379.497L346.701 -308.609H6.94043L765.494 379.497Z" fill="#52C9E8"/>
<path d="M654.133 -308.609H525.131L765.497 379.497L654.133 -308.609Z" fill="#52C9E8"/>
<path d="M1174.55 -308.609H1040.01L765.495 379.497L1174.55 -308.609Z" fill="#96D9E8"/>
<path d="M525.131 -308.609H463.975L765.496 379.497L525.131 -308.609Z" fill="#96D9E8"/>
<path d="M1266.46 -308.609H1174.55L765.495 379.497L1266.46 -308.609Z" fill="#52C9E8"/>
<path d="M1529.3 10.3561V-95.748L765.495 379.498L1529.3 10.3561Z" fill="#00B3E3"/>
<path d="M1529.3 254.413V10.3563L765.495 379.498L1529.3 254.413Z" fill="#96D9E8"/>
<path d="M1529.3 489.845V362.401L765.495 379.497L1529.3 489.845Z" fill="#00B3E3"/>
<path d="M1529.3 362.4V254.411L765.495 379.496L1529.3 362.4Z" fill="#52C9E8"/>
<path d="M1331.93 -308.609H1266.46L765.495 379.497L1331.93 -308.609Z" fill="#00B3E3"/>
<path d="M1475.8 -308.609H1331.93L765.495 379.497L1475.8 -308.609Z" fill="#96D9E8"/>
<path d="M1529.3 -95.7491V-308.609H1475.8L765.495 379.497L1529.3 -95.7491Z" fill="#52C9E8"/>
<path d="M268.552 813.691L200.595 887.115L334.287 783.161L284.797 781.441L402.483 670.491L221.721 807.461L268.552 813.691Z" fill="#96D9E8"/>
<path d="M1112.84 435.594L1170.01 437.644L1071.3 407.194L1094.16 444.683L1000.65 430.562L1132.9 474.052L1112.84 435.594Z" fill="#96D9E8"/>
<mask id="mask1_625_9228" style="mask-type:luminance" maskUnits="userSpaceOnUse" x="1" y="-309" width="1529" height="1377">
<path d="M1529.3 -308.608H1.68945V1067.61H1529.3V-308.608Z" fill="white"/>
</mask>
<g mask="url(#mask1_625_9228)">
<path d="M2122.19 -221.055L1213.49 160.911L2083.09 -424.252L2122.19 -221.055Z" fill="#0069A6"/>
<path d="M1691.22 208.88L1073.39 287.666L1686.6 160.91L1691.22 208.88Z" fill="#0069A6"/>
<path d="M1964.64 730.204L1266.46 490.85L1973.69 568.668L1964.64 730.204Z" fill="#0069A6"/>
<path d="M1634.08 1804.96L1008.18 763.981L1740.23 1644.17L1634.08 1804.96Z" fill="#0069A6"/>
<path d="M1007.11 1628.45L819.998 681.258L1047.06 1611.51L1007.11 1628.45Z" fill="#0069A6"/>
<path d="M-314.778 954.576L516.287 499.215L-293.366 1056.72L-314.778 954.576Z" fill="#0069A6"/>
<path d="M-348.711 517.467L272.305 432.746L-344.068 565.688L-348.711 517.467Z" fill="#0069A6"/>
<path d="M-375.696 -67.6567L400.145 257.695L-424.438 127.384L-375.696 -67.6567Z" fill="#0069A6"/>
<path d="M324.1 -1006.07L673.853 67.9467L202.312 -948.88L324.1 -1006.07Z" fill="#0069A6"/>
</g>
</g>
</g>
</svg>
