<svg xmlns="http://www.w3.org/2000/svg" fill="none" viewBox="0 0 170 49" height="49" width="170">
<g clip-path="url(#clip0_1957_13543)">
<path fill="#95BF46" d="M36.858 9.91213C36.8423 9.81165 36.7933 9.71936 36.7189 9.65C36.6445 9.58064 36.5491 9.53822 36.4477 9.52953L32.9433 9.46299C32.9433 9.46299 30.1708 6.75149 29.8769 6.47424C29.7275 6.37504 29.557 6.31189 29.379 6.28976C29.201 6.26763 29.0203 6.28712 28.8511 6.3467L27.4482 6.77921C27.2779 6.20465 27.0533 5.64763 26.7773 5.11571C25.7847 3.21933 24.3319 2.21569 22.5686 2.21569H22.2082C22.0862 2.21569 22.1028 2.08815 22.0474 2.0327C21.6778 1.62999 21.2235 1.3142 20.7173 1.10806C20.2111 0.901917 19.6654 0.810549 19.1196 0.840528C16.8517 0.907068 14.5894 2.54838 12.754 5.4595C11.4836 7.47812 10.6191 9.72512 10.2088 12.0747L5.73403 13.4609C4.41987 13.8768 4.37551 13.9156 4.20361 15.1577C4.07053 16.1392 0.638184 42.7551 0.638184 42.7551L29.4721 47.7456L41.9761 44.6459C41.9761 44.6459 36.8913 10.145 36.858 9.91213ZM26.001 7.22836L23.783 7.92148C23.7906 6.51537 23.5581 5.11828 23.0954 3.79046C24.7977 4.11762 25.6461 6.06391 26.001 7.22836ZM22.2636 8.37617L17.445 9.86777C17.8738 8.12518 18.7078 6.5084 19.8793 5.14898C20.3374 4.64403 20.8941 4.23829 21.5151 3.95681C22.0697 5.36169 22.3247 6.86699 22.2636 8.37617ZM19.1695 2.38758C19.6515 2.36458 20.129 2.48832 20.5391 2.74246C19.878 3.09809 19.2818 3.56304 18.7758 4.11762C17.2357 5.90043 16.2034 8.06462 15.7871 10.3835L11.828 11.6089C12.5987 7.97138 15.654 2.50402 19.1584 2.39867L19.1695 2.38758Z"></path>
<path fill="#5F8E3E" d="M36.4477 9.52973L32.9433 9.46319C32.9433 9.46319 30.1708 6.75169 29.8769 6.47444C29.7679 6.37833 29.6328 6.3166 29.4888 6.297V47.7458L41.9927 44.6461C41.9927 44.6461 36.8913 10.1397 36.8581 9.90678C36.8421 9.80692 36.7929 9.71535 36.7184 9.64692C36.644 9.57849 36.5486 9.5372 36.4477 9.52973Z"></path>
<path fill="white" d="M22.5519 15.962L21.0991 21.396C19.9771 20.9433 18.7698 20.7408 17.5614 20.8027C14.7446 20.9857 14.7113 22.7601 14.739 23.2037C14.8943 25.638 21.2877 26.1647 21.6481 31.8594C21.9309 36.3398 19.2748 39.4006 15.4432 39.6224C14.1541 39.7433 12.854 39.5937 11.6261 39.1831C10.3981 38.7725 9.26949 38.11 8.31238 37.2381L9.2883 33.096C9.2883 33.096 11.8334 35.0145 13.874 34.887C14.1099 34.8827 14.3427 34.8319 14.559 34.7376C14.7754 34.6433 14.971 34.5073 15.1347 34.3374C15.2985 34.1674 15.4271 33.9669 15.5134 33.7472C15.5996 33.5276 15.6417 33.2931 15.6373 33.0571V32.9573C15.4377 29.7856 10.2309 29.9686 9.90379 24.7618C9.62654 20.3758 12.5044 15.9342 18.8589 15.535C21.2987 15.3354 22.5519 15.962 22.5519 15.962Z"></path>
<path fill="black" d="M58.9438 27.5567C57.491 26.7693 56.7258 26.1094 56.7258 25.1945C56.7258 24.0356 57.7572 23.2926 59.3763 23.2926C60.6026 23.3227 61.8115 23.5901 62.9362 24.0799L64.2614 20.0155C64.2614 20.0155 63.0471 19.0673 59.4595 19.0673C54.469 19.0673 51.0089 21.9229 51.0089 25.9431C51.0089 28.2221 52.6225 29.9576 54.7795 31.1997C56.5151 32.1978 57.1361 32.902 57.1361 33.9389C57.1361 34.9758 56.2711 35.8852 54.652 35.8852C53.0271 35.8238 51.4354 35.4074 49.9886 34.6653L48.5802 38.7243C50.2937 39.7008 52.2425 40.188 54.2139 40.1327C59.3486 40.1327 63.036 37.6042 63.036 33.0462C63.0415 30.5565 61.1784 28.8431 58.9438 27.5567ZM79.4048 19.0229C78.2347 19.0385 77.0833 19.3185 76.0367 19.8418C74.9901 20.3651 74.0753 21.1183 73.3608 22.0449L73.2776 22.0061L75.4956 10.5335H69.7565L64.2115 39.7334H69.9506L71.8581 29.7525C72.6066 25.9819 74.5529 23.653 76.3717 23.653C77.6581 23.653 78.1572 24.5235 78.1572 25.7656C78.1574 26.6146 78.0738 27.4616 77.9077 28.2941L75.7507 39.7224H81.4675L83.6855 27.9171C83.9304 26.6893 84.0677 25.4425 84.0959 24.1908C84.0848 20.9692 82.388 19.0229 79.4048 19.0229ZM97.0101 19.0229C90.1343 19.0229 85.5764 25.2388 85.5764 32.1535C85.5764 36.5894 88.3101 40.1493 93.4503 40.1493C100.204 40.1493 104.756 34.0997 104.756 27.0188C104.756 22.9155 102.356 19.0229 97.0101 19.0229ZM94.1933 35.7743C92.247 35.7743 91.4208 34.1108 91.4208 32.0481C91.4208 28.7766 93.1176 23.4312 96.2228 23.4312C98.2522 23.4312 98.9176 25.1723 98.9176 26.8691C98.9176 30.3735 97.2208 35.7743 94.1933 35.7743ZM119.384 19.0229C115.503 19.0229 113.335 22.422 113.335 22.422H113.251L113.584 19.3556H108.527C108.278 21.4239 107.823 24.5735 107.368 26.9356L103.392 47.8569H109.109L110.684 39.4285H110.806C111.832 39.9608 112.978 40.2169 114.133 40.1715C120.848 40.1715 125.223 33.2957 125.223 26.309C125.262 22.4664 123.565 19.0229 119.384 19.0229ZM113.911 35.8409C113.044 35.8519 112.202 35.5508 111.538 34.9925L112.486 29.6748C113.152 26.115 115.015 23.7528 117.005 23.7528C118.746 23.7251 119.301 25.3387 119.301 26.9023C119.301 30.5565 117.083 35.8409 113.911 35.8409ZM133.424 10.8219C132.996 10.8204 132.572 10.9033 132.176 11.0658C131.779 11.2283 131.419 11.4673 131.115 11.769C130.812 12.0707 130.57 12.4293 130.405 12.8244C130.24 13.2194 130.154 13.6431 130.153 14.0712V14.1489C130.153 15.8456 131.228 17.0045 132.847 17.0045H132.931C133.782 17.03 134.61 16.7181 135.233 16.1366C135.856 15.555 136.224 14.751 136.258 13.8993V13.6775C136.296 12.9631 136.05 12.2624 135.575 11.7278C135.099 11.1931 134.432 10.8676 133.718 10.8219C133.62 10.8161 133.522 10.8161 133.424 10.8219ZM125.428 39.739H131.145L135.043 19.4776H129.282L125.428 39.739ZM149.582 19.4665H145.606L145.812 18.5128C146.144 16.5665 147.303 14.8254 149.211 14.8254C149.828 14.8268 150.442 14.924 151.029 15.1137L152.138 10.6444C151.15 10.2607 150.092 10.0907 149.033 10.1454C147 10.0919 145.015 10.7686 143.438 12.0529C141.492 13.7164 140.583 16.1118 140.111 18.5128L139.951 19.4665H137.294L136.49 23.7472H139.141L136.119 39.7334H141.836L144.858 23.7472H148.795L149.582 19.4665ZM163.334 19.4665C163.334 19.4665 159.763 28.4716 158.155 33.3844H158.072C157.966 31.8041 156.663 19.4665 156.663 19.4665H150.658L154.096 38.07C154.143 38.2278 154.156 38.3937 154.135 38.5569C154.114 38.7202 154.059 38.8773 153.974 39.0181C153.227 40.3981 152.16 41.5789 150.863 42.4616C149.873 43.1599 148.786 43.7092 147.636 44.0918L149.211 48.9381C151.3 48.3746 153.216 47.302 154.789 45.8163C157.401 43.371 159.779 39.6004 162.286 34.4657L169.289 19.4942L163.334 19.4665Z"></path>
</g>
<defs>
<clipPath id="clip0_1957_13543">
<rect transform="translate(0.638184 0.84082)" fill="white" height="48.0806" width="168.662"></rect>
</clipPath>
</defs>
</svg>
